<?xml version="1.0" standalone="no"?>
<!DOCTYPE svg PUBLIC "-//W3C//DTD SVG 20010904//EN"
 "http://www.w3.org/TR/2001/REC-SVG-20010904/DTD/svg10.dtd">
<svg version="1.0" xmlns="http://www.w3.org/2000/svg"
 width="100.000000pt" height="100.000000pt" viewBox="0 0 100.000000 100.000000"
 preserveAspectRatio="xMidYMid meet">
<metadata>
Created by potrace 1.14, written by Peter Selinger 2001-2017
</metadata>
<g transform="translate(0.000000,100.000000) scale(0.100000,-0.100000)"
fill="#000000" stroke="none">
<path d="M415 965 c-38 -19 -73 -34 -77 -34 -5 -1 -8 13 -8 29 l0 30 -75 0
-75 0 0 -64 0 -63 -85 -38 -85 -38 0 -389 c0 -213 4 -388 8 -388 5 0 16 6 25
13 15 11 17 48 19 376 l3 364 83 35 82 35 0 58 c0 56 1 59 25 59 23 0 25 -4
25 -45 0 -25 2 -45 5 -45 3 0 51 20 107 45 l103 46 218 -97 217 -96 0 -159 0
-159 25 12 25 11 0 162 0 161 -242 107 c-134 59 -245 107 -248 106 -3 0 -36
-16 -75 -34z"/>
</g>
</svg>
